<svg width="71" height="30" viewBox="0 0 71 30" fill="none" xmlns="http://www.w3.org/2000/svg">
<g clip-path="url(#clip0_2311_40)">
<path d="M21.595 19.4281C21.595 25.5023 17.276 30 11.5638 30C8.82376 30 6.91969 28.8408 5.52646 27.2643V29.49H0V0H5.75866V11.3601C7.10545 9.92272 9.00952 8.85626 11.6102 8.85626C17.276 8.90263 21.595 13.4003 21.595 19.4281ZM15.7434 19.3818C15.7434 16.507 13.7 14.1422 10.635 14.1422C7.56986 14.1422 5.48002 16.507 5.48002 19.3818C5.48002 22.3029 7.56986 24.7141 10.635 24.7141C13.7 24.7141 15.7434 22.3029 15.7434 19.3818Z" fill="#170F4F"/>
<path d="M23.6851 19.4283C23.6851 13.6323 28.0041 8.85645 34.5058 8.85645C41.0075 8.85645 45.3729 13.6323 45.3729 19.4283C45.3729 25.2243 41.0075 30.0002 34.5058 30.0002C28.0041 30.0002 23.6851 25.2243 23.6851 19.4283ZM39.6143 19.3819C39.6143 16.5071 37.3851 14.1887 34.5058 14.1887C31.6264 14.1887 29.3973 16.5071 29.3973 19.3819C29.3973 22.3495 31.6264 24.6679 34.5058 24.6679C37.3851 24.6215 39.6143 22.3495 39.6143 19.3819Z" fill="#170F4F"/>
<path d="M53.8251 0H48.0664V29.4436H53.8251V0Z" fill="#170F4F"/>
<path d="M63.5312 16.4607V21.3293C63.5312 23.6477 64.4136 24.7142 66.2248 24.7142C67.5251 24.7142 68.5468 24.2505 69.522 23.7404L71.1475 28.3309C69.522 29.351 67.1536 30.0001 64.9708 30.0001C60.2803 30.0001 57.7725 27.3108 57.7725 21.8857L57.7261 16.4607H63.5312V16.4607Z" fill="#170F4F"/>
<path d="M69.615 10.3862H63.5312V16.4604H69.615V10.3862Z" fill="#00BAC7"/>
<path d="M63.5775 0H57.7725V10.3864H63.5775V0Z" fill="#170F4F"/>
</g>
<defs>
<clipPath id="clip0_2311_40">
<rect width="71" height="30" fill="white"/>
</clipPath>
</defs>
</svg>
